<?xml version="1.0" encoding="utf-8"?>
<svg xmlns="http://www.w3.org/2000/svg" viewBox="0 0 500 500">
  <rect x="205.593" y="132" width="23.552" height="50.708" style="paint-order: stroke; fill: rgba(97, 218, 251, 0.667);"/>
  <rect x="177" width="23.552" height="50.708" style="paint-order: stroke; fill: rgba(97, 218, 251, 0.667); stroke-width: 1;" y="132"/>
  <rect x="178.593" y="66" width="23.552" height="50.708" style="paint-order: stroke; fill: rgba(97, 218, 251, 0.667); stroke-width: 1;"/>
  <rect x="150" width="23.552" height="50.708" style="paint-order: stroke; fill: rgba(97, 218, 251, 0.667); stroke-width: 1;" y="66"/>
  <rect x="327.066" y="66" width="23.552" height="50.708" style="paint-order: stroke; fill: rgba(97, 218, 251, 0.667); stroke-width: 1;"/>
  <rect x="298.473" width="23.552" height="50.708" style="paint-order: stroke; fill: rgba(97, 218, 251, 0.667); stroke-width: 1;" y="66"/>
  <rect x="294.475" y="132" width="23.552" height="50.708" style="paint-order: stroke; fill: rgba(97, 218, 251, 0.667); stroke-width: 1;"/>
  <rect x="265.882" width="23.552" height="50.708" style="paint-order: stroke; fill: rgba(97, 218, 251, 0.667); stroke-width: 1;" y="132"/>
  <rect x="300.7" y="265" width="23.552" height="50.708" style="paint-order: stroke; fill: rgba(97, 218, 251, 0.667); stroke-width: 1;"/>
  <rect x="272.107" width="23.552" height="50.708" style="paint-order: stroke; fill: rgba(97, 218, 251, 0.667); stroke-width: 1;" y="265"/>
  <rect x="213.913" y="265" width="23.552" height="50.708" style="paint-order: stroke; fill: rgba(97, 218, 251, 0.667); stroke-width: 1;"/>
  <rect x="185.32" width="23.552" height="50.708" style="paint-order: stroke; fill: rgba(97, 218, 251, 0.667); stroke-width: 1;" y="265"/>
  <rect x="168.506" y="330.983" width="23.552" height="50.708" style="paint-order: stroke; fill: rgba(97, 218, 251, 0.667); stroke-width: 1;"/>
  <rect x="139.913" width="23.552" height="50.708" style="paint-order: stroke; fill: rgba(97, 218, 251, 0.667); stroke-width: 1;" y="330.983"/>
  <rect x="313.517" y="330.983" width="23.552" height="50.708" style="paint-order: stroke; fill: rgba(97, 218, 251, 0.667); stroke-width: 1;"/>
  <rect x="284.924" width="23.552" height="50.708" style="paint-order: stroke; fill: rgba(97, 218, 251, 0.667); stroke-width: 1;" y="330.983"/>
  <rect x="271.771" y="198.057" width="23.552" height="50.708" style="paint-order: stroke; fill: rgba(97, 218, 251, 0.667); stroke-width: 1;"/>
  <rect x="243.178" width="23.552" height="50.708" style="paint-order: stroke; fill: rgba(97, 218, 251, 0.667); stroke-width: 1;" y="198.057"/>
  <rect x="214.194" width="23.552" height="50.708" style="paint-order: stroke; fill: rgba(97, 218, 251, 0.667); stroke-width: 1;" y="198.1"/>
</svg>